<?xml version="1.0" encoding="UTF-8" standalone="no"?>
<svg
   xmlns:dc="http://purl.org/dc/elements/1.1/"
   xmlns:cc="http://creativecommons.org/ns#"
   xmlns:rdf="http://www.w3.org/1999/02/22-rdf-syntax-ns#"
   xmlns:svg="http://www.w3.org/2000/svg"
   xmlns="http://www.w3.org/2000/svg"
   xmlns:sodipodi="http://sodipodi.sourceforge.net/DTD/sodipodi-0.dtd"
   xmlns:inkscape="http://www.inkscape.org/namespaces/inkscape"
   class="topography-shape js-shape"
   width="1200px"
   height="580px"
   viewBox="0 0 1200 580"
   version="1.1"
   id="svg4612"
   sodipodi:docname="background2Edited.svg"
   inkscape:version="0.92.3 (2405546, 2018-03-11)">
  <metadata
     id="metadata4618">
    <rdf:RDF>
      <cc:Work
         rdf:about="">
        <dc:format>image/svg+xml</dc:format>
        <dc:type
           rdf:resource="http://purl.org/dc/dcmitype/StillImage" />
        <dc:title></dc:title>
      </cc:Work>
    </rdf:RDF>
  </metadata>
  <defs
     id="defs4616" />
  <sodipodi:namedview
     pagecolor="#ffffff"
     bordercolor="#666666"
     borderopacity="1"
     objecttolerance="10"
     gridtolerance="10"
     guidetolerance="10"
     inkscape:pageopacity="0"
     inkscape:pageshadow="2"
     inkscape:window-width="1525"
     inkscape:window-height="991"
     id="namedview4614"
     showgrid="false"
     inkscape:zoom="0.59416667"
     inkscape:cx="672.52582"
     inkscape:cy="472.53735"
     inkscape:window-x="161"
     inkscape:window-y="0"
     inkscape:window-maximized="0"
     inkscape:current-layer="svg4612" />
  <path
     d="m 706.20567,20.281153 c -26.76842,56.060576 -21.70619,91.207877 15.18388,105.441907 55.33651,21.35105 186.91525,29.89129 241.91497,76.20729 54.99788,46.3151 222.69418,10.51022 251.37418,-68.98128 28.6801,-79.491507 80.3184,-202.013891 -191.9756,-202.013891 -181.53113,0 -287.0281,29.781386 -316.4965,89.345974 z"
     id="path4586"
     inkscape:connector-curvature="0"
     style="fill:#fffa72;fill-rule:nonzero;stroke-width:0.92051888" />
  <path
     d="m 312.29765,130.96873 c 18.14064,156.96961 90.67925,255.38206 217.60799,295.23735 190.39703,59.78293 572.99916,83.69559 803.90906,213.3804 230.9032,129.68227 640.9966,29.42863 589.2999,-193.14759 C 1871.418,223.86268 1812.5488,-119.2 1050.1258,-119.2 c -508.28726,0 -754.22488,83.387881 -737.82554,250.16873 z"
     style="fill:#652060;fill-rule:nonzero;stroke-width:2.5774529"
     id="path4588"
     inkscape:connector-curvature="0" />
  <path
     d="m 341.84078,121.74476 c 8.50356,148.56053 71.72346,241.70088 189.6523,279.42107 176.89697,56.58027 537.68242,79.2119 749.06312,201.94931 211.3745,122.735 605.033,27.85209 568.3927,-182.8004 -36.6402,-210.65249 -73.4174,-535.33681 -794.9963,-535.33681 -481.05759,0 -718.42327,78.920675 -712.10935,236.76683 z"
     style="fill:#602f6a;fill-rule:nonzero;stroke-width:2.43937492"
     id="path4590"
     inkscape:connector-curvature="0" />
  <path
     d="m 372.13251,112.5208 c 0.21079,140.15144 54.95482,228.0197 164.22508,263.60477 163.90889,53.37762 503.08261,74.72821 696.04471,190.51822 192.9563,115.78774 569.3213,26.27556 545.8313,-172.4532 -23.4899,-198.72877 -41.1133,-505.03473 -721.8481,-505.03473 -453.8279,0 -681.9075,74.453468 -684.25065,223.36494 z"
     style="fill:#5c3f73;fill-rule:nonzero;stroke-width:2.30129719"
     id="path4592"
     inkscape:connector-curvature="0" />
  <path
     d="m 403.10941,103.29683 c -6.85158,131.74236 40.18796,214.33852 141.11204,247.78849 151.38943,50.17496 469.13875,70.24452 644.69875,179.08713 175.5548,108.84048 533.8404,24.69902 521.756,-162.10601 -12.0843,-186.80504 -13.2428,-474.73265 -653.1336,-474.73265 -426.59817,0 -644.73807,69.986262 -654.43099,209.96304 z"
     style="fill:#574f7c;fill-rule:nonzero;stroke-width:2.16321921"
     id="path4594"
     inkscape:connector-curvature="0" />
  <path
     d="m 434.71804,94.07287 c -12.77952,123.33327 27.26677,200.65733 120.13272,231.9722 139.30202,46.97231 435.79976,65.76083 594.89504,167.65604 159.0904,101.89321 498.572,23.12249 496.2847,-151.75883 -2.2873,-174.88131 10.5397,-444.43055 -588.507,-444.43055 -399.36852,0 -606.96605,65.519045 -622.80341,196.56114 z"
     style="fill:#535e85;fill-rule:nonzero;stroke-width:2.02514148"
     id="path4596"
     inkscape:connector-curvature="0" />
  <path
     d="m 466.91336,84.848906 c -17.65391,114.924184 16.05967,186.976154 101.13499,216.155914 127.61585,43.76965 403.02254,61.27713 546.52345,156.22494 143.4964,94.94595 463.5013,21.54596 469.5171,-141.41163 6.0158,-162.95758 30.5257,-414.128472 -527.6769,-414.128472 -372.13886,0 -568.63435,61.051841 -589.49673,183.159248 z"
     style="fill:#4f6e8f;fill-rule:nonzero;stroke-width:1.88706362"
     id="path4598"
     inkscape:connector-curvature="0" />
  <path
     d="m 499.65745,75.624941 c -21.54283,106.515089 6.45587,173.294969 83.99077,200.339629 116.30501,40.56699 370.77078,56.79344 499.49148,144.79385 128.7166,87.99868 428.6153,19.96942 441.5369,-131.06444 12.9216,-151.03386 46.9606,-383.826391 -470.3979,-383.826391 -344.90921,0 -529.77913,56.584634 -554.61948,169.757352 z"
     style="fill:#4a7e98;fill-rule:nonzero;stroke-width:1.74898589"
     id="path4600"
     inkscape:connector-curvature="0" />
  <path
     d="m 532.91851,66.400976 c -24.5034,98.106004 -1.63754,159.613784 68.59266,184.523344 105.34774,37.36433 339.014,52.30975 453.72143,133.36275 114.7038,81.05142 393.9033,18.39289 412.4144,-120.71724 18.511,-139.11014 60.0502,-353.524309 -416.4642,-353.524309 -317.67954,0 -490.43073,52.117425 -518.26266,156.355455 z"
     style="fill:#468da1;fill-rule:nonzero;stroke-width:1.61090803"
     id="path4602"
     inkscape:connector-curvature="0" />
  <path
     d="m 566.67005,57.177012 c -26.58316,89.696918 -8.29794,145.932608 54.85119,168.707058 94.72594,34.16167 307.72687,47.82605 409.14876,121.93166 101.4186,74.10415 359.3565,16.81635 382.208,-110.37005 22.8515,-127.18641 69.9659,-323.222228 -365.7044,-323.222228 -290.44985,0 -450.61439,47.650218 -480.50206,142.95356 z"
     style="fill:#419daa;fill-rule:nonzero;stroke-width:1.47283018"
     id="path4604"
     inkscape:connector-curvature="0" />
  <path
     d="m 600.89027,47.953047 c -27.82128,81.287833 -13.58902,132.251423 42.69274,152.890773 84.42467,30.95901 276.8885,43.34236 365.72019,110.50056 88.8288,67.15689 324.9675,15.23983 350.9661,-100.02286 25.9986,-115.262679 76.8486,-292.920136 -317.9776,-292.920136 -263.22014,0 -410.35092,43.18301 -441.40007,129.551663 z"
     style="fill:#3dadb4;fill-rule:nonzero;stroke-width:1.33475232"
     id="path4606"
     inkscape:connector-curvature="0" />
  <path
     d="m 635.56157,38.729082 c -28.2494,72.878748 -17.56225,118.570238 32.0578,137.074488 74.43191,27.75636 246.48202,38.85866 323.39274,99.06947 76.90819,60.20962 290.73029,13.66329 318.72739,-89.67567 27.9971,-103.338955 80.8126,-262.618054 -273.1695,-262.618054 -235.9905,0 -369.65722,38.715801 -401.00722,116.149766 z"
     style="fill:#38bcbd;fill-rule:nonzero;stroke-width:1.19667447"
     id="path4608"
     inkscape:connector-curvature="0" />
  <path
     d="m 670.67013,29.505118 c -27.89229,64.469662 -20.25797,104.889062 22.89976,121.258192 64.73819,24.55371 216.49421,34.37498 282.13269,87.63839 65.63632,53.26236 256.64042,12.08675 285.52252,-79.32848 28.8822,-91.415231 81.947,-232.315973 -231.191,-232.315973 -208.76085,0 -328.54636,34.248594 -359.3629,102.747871 z"
     style="fill:#34ccc6;fill-rule:nonzero;stroke-width:1.05859673"
     id="path4610"
     inkscape:connector-curvature="0" />
</svg>
